<svg xmlns="http://www.w3.org/2000/svg" width="32" height="32" viewBox="0 0 32 32"><g transform="translate(-70.001 26.011)"><rect width="32" height="32" transform="translate(70.001 -26.011)" fill="none"/><path d="M.184,38.4c4.71-9.476,8.907-17.216,12.135-22.382,4.439-7.1,5.363-6.736,5.977-6.493,1.094.436.609,2.054.375,2.825-1.473,4.823-3.237,16.809-3.378,20.913,1.287-1.84,3.685-5.569,5.86-8.955s4.391-6.832,6.179-9.484c3.229-4.843,3.608-4.944,4.351-4.581s.448,1.3.295,1.743l-.024.065c-4.508,13-5.941,20.8-4.246,23.177.288.421,1.287.626,1.287.626s2.418.129,0,1.338a2.984,2.984,0,0,1-2.68-1.032c-2.389-3.358.057-12.721,2.946-21.426-1.848,2.817-4.544,7.03-6.748,10.448-3.85,6-6.251,9.706-6.974,10.376a.989.989,0,0,1-1.235.157c-.517-.327-1.211-.779.266-10.8a118.94,118.94,0,0,1,2.534-12.975c-1.957,2.317-6.691,9.5-15.477,27.173C1.492,39.392-.015,38.8.184,38.4ZM30.568,11.053Z" transform="translate(69.835 -34.435)" fill="#130b45"/></g></svg>