<svg xmlns="http://www.w3.org/2000/svg" width="12" height="12" viewBox="0 0 12 12"><g transform="translate(-5954 -12883)"><rect width="12" height="12" transform="translate(5954 12883)" fill="none"/><path d="M2677.574,9314.348l4.026-4.025a.633.633,0,0,0,0-.895l-.9-.9a.635.635,0,0,0-.895,0l-4.025,4.026-4.026-4.026a.634.634,0,0,0-.895,0l-.894.9a.632.632,0,0,0,0,.895l4.025,4.025-4.025,4.026a.63.63,0,0,0,0,.894l.894.895a.634.634,0,0,0,.895,0l4.026-4.025,4.025,4.025a.635.635,0,0,0,.895,0l.9-.895a.632.632,0,0,0,0-.894Z" transform="translate(3284.215 3574.652)" fill="#26292d" opacity="0.4"/></g></svg>