<svg xmlns="http://www.w3.org/2000/svg" width="24" height="24" viewBox="0 0 24 24"><g transform="translate(-95 -187)"><rect width="24" height="24" transform="translate(95 187)" fill="none"/><g transform="translate(0.1 74.975)"><path d="M69.15,15.775H67.4a.5.5,0,0,1-.5-.5v-1.75a.5.5,0,0,1,.5-.5h1.75a.5.5,0,0,1,.5.5v1.75a.5.5,0,0,1-.5.5" transform="translate(28 103)" fill="#26292d"/><path d="M69.15,22.375H67.4a.5.5,0,0,1-.5-.5v-1.75a.5.5,0,0,1,.5-.5h1.75a.5.5,0,0,1,.5.5v1.75a.5.5,0,0,1-.5.5" transform="translate(28 103)" fill="#26292d"/><path d="M69.15,28.975H67.4a.5.5,0,0,1-.5-.5v-1.75a.5.5,0,0,1,.5-.5h1.75a.5.5,0,0,1,.5.5v1.75a.5.5,0,0,1-.5.5" transform="translate(28 103)" fill="#26292d"/><path d="M90.6,15.775H74a.5.5,0,0,1-.5-.5v-1.75a.5.5,0,0,1,.5-.5H90.6a.5.5,0,0,1,.5.5v1.75a.5.5,0,0,1-.5.5" transform="translate(27.8 103)" fill="#26292d"/><path d="M90.6,22.375H74a.5.5,0,0,1-.5-.5v-1.75a.5.5,0,0,1,.5-.5H90.6a.5.5,0,0,1,.5.5v1.75a.5.5,0,0,1-.5.5" transform="translate(27.8 103)" fill="#26292d"/><path d="M90.6,28.975H74a.5.5,0,0,1-.5-.5v-1.75a.5.5,0,0,1,.5-.5H90.6a.5.5,0,0,1,.5.5v1.75a.5.5,0,0,1-.5.5" transform="translate(27.8 103)" fill="#26292d"/></g></g></svg>