<svg xmlns="http://www.w3.org/2000/svg" width="14" height="13" viewBox="0 0 14 13"><g transform="translate(-1756 -3794)"><rect width="14" height="13" transform="translate(1756 3794)" fill="none"/><g transform="translate(280.516 2865.248)" opacity="0.399"><path d="M1485.38,944.708h-4.854a.807.807,0,0,1-.8-.783l-.285-6.593h7.017l-.286,6.593A.807.807,0,0,1,1485.38,944.708Z" transform="translate(-0.469 -3.956)" fill="#26292d"/><path d="M1478.895,934.153h7.179a.415.415,0,0,1,.41.42v1.094a.125.125,0,0,1-.123.126h-7.754a.125.125,0,0,1-.123-.126v-1.094A.416.416,0,0,1,1478.895,934.153Z" transform="translate(0 -3.173)" fill="#26292d"/><path d="M1486.543,933.491v-1.084a.655.655,0,0,0-.655-.655h-1.146a.655.655,0,0,0-.655.655v.573" transform="translate(-2.83 -2)" fill="#26292d"/></g></g></svg>