<svg xmlns="http://www.w3.org/2000/svg" width="20" height="20" viewBox="0 0 20 20"><g transform="translate(-5952 -12883)"><rect width="20" height="20" transform="translate(5952 12883)" fill="none"/><path d="M-3615.81-3778.2a.764.764,0,0,1,0-1.063l5.722-5.842a1.524,1.524,0,0,0,0-2.125l-1.04-1.063a1.454,1.454,0,0,0-2.082,0l-7.8,7.968a2.288,2.288,0,0,0,0,3.188l7.8,7.968a1.455,1.455,0,0,0,2.082,0l1.04-1.062a1.524,1.524,0,0,0,0-2.125Z" transform="translate(9577.657 16671.73)" fill="#26292d"/></g></svg>