<svg xmlns="http://www.w3.org/2000/svg" width="24" height="24" viewBox="0 0 24 24"><g transform="translate(-1804 -52)"><rect width="24" height="24" transform="translate(1804 52)" fill="none"/><path d="M1799.5,14.749a1.714,1.714,0,0,0-1.22-.507h-16.111a.479.479,0,0,1-.477-.424l-.1-.887a2.919,2.919,0,0,0-2.9-2.58h-2.207a.48.48,0,0,0-.48.48v1.44a.479.479,0,0,0,.48.48h2.209a.516.516,0,0,1,.513.457l1.8,15.47a3.348,3.348,0,0,0,3.321,2.971h12.552a.479.479,0,0,0,.48-.48v-1.44a.479.479,0,0,0-.48-.479h-12.535a.957.957,0,0,1-.954-.85l-.154-1.308a.481.481,0,0,1,.478-.535h12.638a1.908,1.908,0,0,0,1.871-1.534l1.741-8.707a1.669,1.669,0,0,0,.036-.346,1.707,1.707,0,0,0-.5-1.22" transform="translate(28 42.649)" fill="#26292d"/></g></svg>