<svg xmlns="http://www.w3.org/2000/svg" width="24" height="24" viewBox="0 0 24 24"><g transform="translate(-231 -186)"><rect width="24" height="24" transform="translate(231 186)" fill="none"/><path d="M215.511,9.045a10.489,10.489,0,0,0-7.642,16.421.747.747,0,0,1-.069.966l-3.685,3.686c-.591.59-.589,1.063-.3,1.356l.707.707a.75.75,0,0,0,1.061,0l3.977-3.977a.756.756,0,0,1,.971-.073,10.5,10.5,0,1,0,4.976-19.086M216.5,27.5a8,8,0,1,1,8-8,8.009,8.009,0,0,1-8,8" transform="translate(27.874 177)" fill="#26292d"/></g></svg>