<svg xmlns="http://www.w3.org/2000/svg" width="24" height="24" viewBox="0 0 24 24"><g transform="translate(-1640 -188)"><rect width="24" height="24" transform="translate(1640 188)" fill="none"/><path d="M1623,9.9a11.117,11.117,0,1,0,11.117,11.117A11.117,11.117,0,0,0,1623,9.9m1.25,18.592a.5.5,0,0,1-.463.5c-.26.017-.521.026-.785.026H1623q-.394,0-.783-.026a.5.5,0,0,1-.464-.5v-9.96a.5.5,0,0,1,.5-.5h1.5a.5.5,0,0,1,.5.5Zm-1.25-12.4a1.75,1.75,0,1,1,1.75-1.75,1.75,1.75,0,0,1-1.75,1.75" transform="translate(29.117 179.103)" fill="#26292d"/></g></svg>