<svg xmlns="http://www.w3.org/2000/svg" width="24" height="24" viewBox="0 0 24 24"><g transform="translate(-1859 -114)"><rect width="24" height="24" transform="translate(1859 114)" fill="none"/><g transform="translate(0 2)"><path d="M1854.638,29.153a10.512,10.512,0,0,0-4.3-6.883,1.962,1.962,0,0,0-2.249.1,8.729,8.729,0,0,1-10.17,0,1.962,1.962,0,0,0-2.249-.1,10.515,10.515,0,0,0-4.3,6.883,3.238,3.238,0,0,0,3.2,3.847h16.879a3.239,3.239,0,0,0,3.2-3.847" transform="translate(28 103)" fill="#aa1dff"/><path d="M1843,9a6.25,6.25,0,1,1-6.25,6.25A6.257,6.257,0,0,1,1843,9" transform="translate(28 103)" fill="#aa1dff"/></g></g></svg>