<svg xmlns="http://www.w3.org/2000/svg" viewBox="0 0 261.4 84.08"><defs><style>.cls-1{fill:none;stroke:#130b45;stroke-linecap:round;stroke-linejoin:round;stroke-width:4px;}</style></defs><g id="Layer_2" data-name="Layer 2"><g id="Layer_1-2" data-name="Layer 1"><path class="cls-1" d="M2,82.08c32.7-65.8,46.1-79.3,42.1-66-3.7,12.1-11.5,60.5-7.2,56.6s45-71.5,40.2-57.6c-5.1,14.7-21.5,61.8-5.5,61.8,18.1,0,19.2-17.7,28.2-21.4a12.31,12.31,0,0,1,9.7,0c.7.3,1-.4-1.8-.8-8-1.1-12.5,2.1-15.7,10.9-2.8,7.5,1.3,11.3,5.8,11.3,9.8,0,13.1-9.9,17.6-22.6.4-1.1-9.4,22.6,2.6,22.6,5.5,0,10.3-3.6,14.4-14.8,4.5-12.4,21.5-62.4,20.8-60-8,26-31.1,74.8-6.5,74.8,8.1,0,14.2-3.8,16.3-9.5.5-1.3.6-1.7.3-.9-2.3,6.5.4,10.4,6.2,10.4,7.6,0,11.8-5.7,13.7-11.3,3.1-8.8-.8-11.3-5.8-11.3-5.4,0-10.6,2.2-11.9,6.1-1.5,4.4,14.6,5.1,30,4.3.6,0,.9.7.6,1.6-2,5.7.7,10.5,6.1,10.5,5.6,0,11-3.5,13.7-11.3,2.8-8.1-1.1-11.3-5.8-11.3-5.5,0-10.6,2.3-11.8,5.8-2.4,7,19.3,8.6,32.6-5.1,1.4-1.5,1.6.5,1.3,1.1-2.2,4.7-4.8,13.9-6.8,18.9-.7,1.8-.6,2.3-.2,1.2,5.3-15.2,7.7-22,18.9-22,3,0,8,1.1,5.6,7.9-.6,1.7-1.9,5.4-3.9,11.3-.5,1.6,0,3.3,1.8,3.3,4.6-.2,6.7-.3,11.8-.9"/><path class="cls-1" d="M199.4,8.28c10.6.5,19.2,1.3,23.8,2,8.5,1.2,11,4.1,8.4,11.3-2.7,7.5-4.1,10.4-8.2,16.2-2.4,3.3-6.2,5.2-14.1,6.3a214.1,214.1,0,0,1-36.4,2.7c-4.4,0-9-19.2-5.4-29.5"/><path class="cls-1" d="M127.4,11c17.6-3.1,40.5-3.6,59.9-3.1"/></g></g></svg>