<svg xmlns="http://www.w3.org/2000/svg" width="50" height="42" viewBox="0 0 50 42"><path d="M38,0H12A12,12,0,0,0,0,12V30A12,12,0,0,0,12,42H38A12,12,0,0,0,50,30V12A12,12,0,0,0,38,0M25.649,27.159a.477.477,0,0,1-.477.476H23.79a.476.476,0,0,1-.476-.476v-8.6a.159.159,0,0,0-.306-.06l-3.623,8.748a.634.634,0,0,1-.587.392H18.65a.635.635,0,0,1-.587-.393l-3.6-8.744a.159.159,0,0,0-.306.061v8.6a.476.476,0,0,1-.477.476H12.3a.477.477,0,0,1-.477-.476V14.8a.478.478,0,0,1,.477-.477h2.391a.637.637,0,0,1,.588.393l3.274,7.942a.19.19,0,0,0,.352,0l3.294-7.943a.634.634,0,0,1,.586-.393h2.392a.478.478,0,0,1,.477.477Zm11.235-.442a5.622,5.622,0,0,1-3.852,1.158,7.147,7.147,0,0,1-5.121-1.827.473.473,0,0,1-.048-.619l.737-1.02a.476.476,0,0,1,.712-.06,5.5,5.5,0,0,0,3.821,1.45,3.153,3.153,0,0,0,2-.538,1.6,1.6,0,0,0,.669-1.278,1.353,1.353,0,0,0-.8-1.207,7.211,7.211,0,0,0-1.937-.709q-1.137-.258-2.285-.619a4.406,4.406,0,0,1-1.945-1.216,3.119,3.119,0,0,1-.8-2.216,3.454,3.454,0,0,1,1.347-2.783,5.336,5.336,0,0,1,3.5-1.108,6.971,6.971,0,0,1,4.66,1.558.475.475,0,0,1,.059.649l-.752.975a.47.47,0,0,1-.667.088,5.273,5.273,0,0,0-3.5-1.2,2.718,2.718,0,0,0-1.647.45,1.421,1.421,0,0,0-.609,1.207,1.027,1.027,0,0,0,.429.838,3.345,3.345,0,0,0,1.108.549q.678.21,1.507.41a16.979,16.979,0,0,1,1.655.489,7.705,7.705,0,0,1,1.508.708,3.262,3.262,0,0,1,1.108,1.158,3.445,3.445,0,0,1,.428,1.755,3.781,3.781,0,0,1-1.3,2.954" fill="#26292d"/></svg>