<svg xmlns="http://www.w3.org/2000/svg" width="26" height="26" viewBox="0 0 26 26"><g transform="translate(-276 -1129)"><path d="M805.075,254.1a.951.951,0,0,1,.871.616,19.408,19.408,0,0,0,2.744,5.074c.541.611,1.124.826,1.295-.245s.3-3.868-.242-4.54a1.373,1.373,0,0,0-.859-.538.209.209,0,0,1-.106-.351c.293-.3,1.048-.673,2.992-.673.807,0,2.7-.216,2.7,1.182V258.2c0,1.131.188,2.7,1.028,1.846a14.981,14.981,0,0,0,2.945-5.225.963.963,0,0,1,.913-.729H823.4a.688.688,0,0,1,.555,1.026,50.93,50.93,0,0,1-2.808,4.635c-.955,1.379-1.258,1.708-.25,2.734a19.07,19.07,0,0,1,2.993,3.6.884.884,0,0,1-.706,1.333h-3.554a2.042,2.042,0,0,1-1.543-.722c-.5-.581-1.214-1.4-1.752-1.99-.928-1.026-1.863-.363-1.863,1.19v.58a.911.911,0,0,1-.876.942h-1.272c-4.958,0-7.713-5.248-9.332-8.531-.935-1.9-1.547-3.2-1.9-3.969a.576.576,0,0,1,.483-.831Z" transform="translate(-523.533 882.073)" fill="none" stroke="#383838" stroke-miterlimit="10" stroke-width="2"/><rect width="26" height="26" transform="translate(276 1129)" fill="none"/></g></svg>