<svg xmlns="http://www.w3.org/2000/svg" width="24" height="24" viewBox="0 0 24 24"><g transform="translate(-281 -1103)"><path d="M805.176,254.112a.975.975,0,0,1,.892.632,19.9,19.9,0,0,0,2.813,5.2c.554.627,1.152.846,1.327-.251s.306-3.965-.248-4.654a1.407,1.407,0,0,0-.881-.552.214.214,0,0,1-.109-.359c.3-.3,1.074-.69,3.067-.69.828,0,2.765-.222,2.765,1.211v3.673c0,1.159.193,2.767,1.053,1.892a15.356,15.356,0,0,0,3.019-5.355.987.987,0,0,1,.936-.748h4.146a.7.7,0,0,1,.569,1.052,52.164,52.164,0,0,1-2.879,4.751c-.979,1.414-1.29,1.751-.257,2.8a19.546,19.546,0,0,1,3.068,3.694.906.906,0,0,1-.724,1.366h-3.643a2.093,2.093,0,0,1-1.582-.74c-.516-.6-1.245-1.431-1.8-2.04-.952-1.052-1.91-.372-1.91,1.22v.595a.934.934,0,0,1-.9.965h-1.3c-5.083,0-7.907-5.38-9.566-8.745-.959-1.943-1.586-3.283-1.945-4.068a.591.591,0,0,1,.5-.852Z" transform="translate(-520.033 854.573)" fill="#26292d" opacity="0.25"/><rect width="24" height="24" transform="translate(281 1103)" fill="none"/></g></svg>