<svg xmlns="http://www.w3.org/2000/svg" width="24" height="24" viewBox="0 0 24 24"><g transform="translate(-311 -1103)"><rect width="24" height="24" transform="translate(311 1103)" fill="none"/><path d="M303.014,168.8a.463.463,0,0,1-.47-.456V164.76a.463.463,0,0,1,.47-.456h2.633a.164.164,0,0,0,.166-.161v-2.55a5.149,5.149,0,0,1,5.225-5.07h2.938a.463.463,0,0,1,.47.456v3.341a.463.463,0,0,1-.47.456H311.74a1.154,1.154,0,0,0-1.171,1.136v2.232a.164.164,0,0,0,.166.161h3.242a.463.463,0,0,1,.47.456v3.581a.463.463,0,0,1-.47.456h-3.242a.163.163,0,0,0-.166.161v8.75a.463.463,0,0,1-.47.456h-3.816a.463.463,0,0,1-.47-.456v-8.75a.164.164,0,0,0-.166-.161Z" transform="translate(14.456 947.477)" fill="#26292d"/></g></svg>