<svg xmlns="http://www.w3.org/2000/svg" width="24" height="24" viewBox="0 0 24 24"><g transform="translate(-347 -1102)"><rect width="24" height="24" transform="translate(347 1102)" fill="none"/><path d="M1858.377,173.423a.386.386,0,0,0,.578-.013,6.1,6.1,0,0,1,1.548-1.341,5.268,5.268,0,0,1,6.076.586,6.013,6.013,0,0,1,2.028,3.964,7.184,7.184,0,0,1-1.682,5.411,24.025,24.025,0,0,1-3.261,3.323q-2.1,1.84-4.207,3.661a1.144,1.144,0,0,1-1.549.038c-1.876-1.643-3.756-3.281-5.61-4.949a14.122,14.122,0,0,1-2.366-2.717,6.82,6.82,0,0,1-1.26-4.279,5.7,5.7,0,0,1,3.414-5.281,4.942,4.942,0,0,1,5.488.8A9.629,9.629,0,0,1,1858.377,173.423Z" transform="translate(-1499.658 933.664)" fill="#26292d" opacity="0.253"/></g></svg>