<svg xmlns="http://www.w3.org/2000/svg" width="48" height="48" viewBox="0 0 48 48"><g transform="translate(-784.577 -2322)"><rect width="48" height="48" transform="translate(784.577 2322)" fill="none"/><rect width="5" height="5" rx="1.058" transform="translate(795.577 2333)" fill="#fff"/><rect width="5" height="5" rx="1.058" transform="translate(802.577 2333)" fill="#fff"/><rect width="5" height="5" rx="1.058" transform="translate(809.577 2333)" fill="#fff"/><rect width="5" height="5" rx="1.058" transform="translate(816.577 2333)" fill="#fff"/><rect width="5" height="5" rx="1.058" transform="translate(795.577 2340)" fill="#fff"/><rect width="5" height="5" rx="1.058" transform="translate(802.577 2340)" fill="#fff"/><rect width="5" height="5" rx="1.058" transform="translate(809.577 2340)" fill="#fff"/><rect width="5" height="5" rx="1.058" transform="translate(816.577 2340)" fill="#fff"/><rect width="5" height="5" rx="1.058" transform="translate(795.577 2347)" fill="#fff"/><rect width="5" height="5" rx="1.058" transform="translate(802.577 2347)" fill="#fff"/><rect width="5" height="5" rx="1.058" transform="translate(809.577 2347)" fill="#fff"/><rect width="5" height="5" rx="1.058" transform="translate(816.577 2347)" fill="#fff"/><rect width="5" height="5" rx="1.058" transform="translate(795.577 2354)" fill="#fff"/><rect width="5" height="5" rx="1.058" transform="translate(802.577 2354)" fill="#fff"/><rect width="5" height="5" rx="1.058" transform="translate(809.577 2354)" fill="#fff"/><rect width="5" height="5" rx="1.058" transform="translate(816.577 2354)" fill="#fff"/></g></svg>